<?xml version="1.0" encoding="UTF-8" ?>
<svg version="1.1" width="18" height="18" xmlns="http://www.w3.org/2000/svg" shape-rendering="crispEdges">
<rect x="1" y="3" width="16" height="1" fill="#8770CC" />
<rect x="0" y="4" width="1" height="9" fill="#8770CC" />
<rect x="1" y="4" width="1" height="1" fill="#7059B6" />
<rect x="2" y="4" width="1" height="1" fill="#FFFFFF" />
<rect x="3" y="4" width="12" height="1" fill="#E3CCF9" />
<rect x="15" y="4" width="1" height="1" fill="#FFFFFF" />
<rect x="16" y="4" width="2" height="1" fill="#7059B6" />
<rect x="1" y="5" width="1" height="1" fill="#C7A9F9" />
<rect x="2" y="5" width="1" height="1" fill="#7059B6" />
<rect x="3" y="5" width="1" height="1" fill="#FFFFFF" />
<rect x="4" y="5" width="10" height="1" fill="#E3CCF9" />
<rect x="14" y="5" width="1" height="1" fill="#FFFFFF" />
<rect x="15" y="5" width="1" height="1" fill="#7059B6" />
<rect x="16" y="5" width="1" height="9" fill="#9F89E3" />
<rect x="17" y="5" width="1" height="10" fill="#7059B6" />
<rect x="1" y="6" width="1" height="8" fill="#E3CCF9" />
<rect x="2" y="6" width="1" height="1" fill="#C7A9F9" />
<rect x="3" y="6" width="1" height="1" fill="#7059B6" />
<rect x="4" y="6" width="1" height="1" fill="#FFFFFF" />
<rect x="5" y="6" width="8" height="1" fill="#E3CCF9" />
<rect x="13" y="6" width="1" height="1" fill="#FFFFFF" />
<rect x="14" y="6" width="1" height="1" fill="#7059B6" />
<rect x="15" y="6" width="1" height="1" fill="#C7A9F9" />
<rect x="2" y="7" width="1" height="6" fill="#E3CCF9" />
<rect x="3" y="7" width="1" height="1" fill="#C7A9F9" />
<rect x="4" y="7" width="1" height="1" fill="#7059B6" />
<rect x="5" y="7" width="1" height="1" fill="#FFFFFF" />
<rect x="6" y="7" width="6" height="1" fill="#E3CCF9" />
<rect x="12" y="7" width="1" height="1" fill="#FFFFFF" />
<rect x="13" y="7" width="1" height="1" fill="#7059B6" />
<rect x="14" y="7" width="1" height="1" fill="#C7A9F9" />
<rect x="15" y="7" width="1" height="6" fill="#E3CCF9" />
<rect x="3" y="8" width="1" height="4" fill="#E3CCF9" />
<rect x="4" y="8" width="1" height="1" fill="#C7A9F9" />
<rect x="5" y="8" width="1" height="1" fill="#7059B6" />
<rect x="6" y="8" width="1" height="1" fill="#FFFFFF" />
<rect x="7" y="8" width="4" height="1" fill="#E3CCF9" />
<rect x="11" y="8" width="1" height="1" fill="#FFFFFF" />
<rect x="12" y="8" width="1" height="1" fill="#7059B6" />
<rect x="13" y="8" width="1" height="1" fill="#C7A9F9" />
<rect x="14" y="8" width="1" height="4" fill="#E3CCF9" />
<rect x="4" y="9" width="1" height="2" fill="#E3CCF9" />
<rect x="5" y="9" width="1" height="1" fill="#C7A9F9" />
<rect x="6" y="9" width="1" height="1" fill="#7059B6" />
<rect x="7" y="9" width="1" height="1" fill="#FFFFFF" />
<rect x="8" y="9" width="2" height="1" fill="#E3CCF9" />
<rect x="10" y="9" width="1" height="1" fill="#FFFFFF" />
<rect x="11" y="9" width="1" height="1" fill="#7059B6" />
<rect x="12" y="9" width="1" height="1" fill="#C7A9F9" />
<rect x="13" y="9" width="1" height="2" fill="#E3CCF9" />
<rect x="5" y="10" width="1" height="1" fill="#8770CC" />
<rect x="6" y="10" width="1" height="1" fill="#FFFFFF" />
<rect x="7" y="10" width="1" height="1" fill="#7059B6" />
<rect x="8" y="10" width="2" height="1" fill="#FFFFFF" />
<rect x="10" y="10" width="1" height="1" fill="#7059B6" />
<rect x="11" y="10" width="1" height="1" fill="#FFFFFF" />
<rect x="12" y="10" width="1" height="1" fill="#8770CC" />
<rect x="4" y="11" width="1" height="1" fill="#8770CC" />
<rect x="5" y="11" width="1" height="1" fill="#FFFFFF" />
<rect x="6" y="11" width="2" height="3" fill="#E3CCF9" />
<rect x="8" y="11" width="2" height="1" fill="#7059B6" />
<rect x="10" y="11" width="2" height="3" fill="#E3CCF9" />
<rect x="12" y="11" width="1" height="1" fill="#FFFFFF" />
<rect x="13" y="11" width="1" height="1" fill="#8770CC" />
<rect x="3" y="12" width="1" height="1" fill="#8770CC" />
<rect x="4" y="12" width="1" height="1" fill="#FFFFFF" />
<rect x="5" y="12" width="1" height="2" fill="#E3CCF9" />
<rect x="8" y="12" width="2" height="2" fill="#E3CCF9" />
<rect x="12" y="12" width="1" height="2" fill="#E3CCF9" />
<rect x="13" y="12" width="1" height="1" fill="#FFFFFF" />
<rect x="14" y="12" width="1" height="1" fill="#8770CC" />
<rect x="0" y="13" width="1" height="2" fill="#7059B6" />
<rect x="2" y="13" width="1" height="1" fill="#8770CC" />
<rect x="3" y="13" width="2" height="1" fill="#E3CCF9" />
<rect x="13" y="13" width="1" height="1" fill="#E3CCF9" />
<rect x="14" y="13" width="1" height="1" fill="#FFFFFF" />
<rect x="15" y="13" width="1" height="1" fill="#8770CC" />
<rect x="1" y="14" width="1" height="1" fill="#8770CC" />
<rect x="2" y="14" width="14" height="1" fill="#C7A9F9" />
<rect x="16" y="14" width="1" height="2" fill="#7059B6" />
<rect x="1" y="15" width="15" height="1" fill="#7059B6" />
</svg>